<svg width="346" height="49" viewBox="0 0 346 49" fill="none" xmlns="http://www.w3.org/2000/svg">
<path d="M14.2625 49V42.125H34.8875V49H14.2625ZM7.3875 42.125V7.75H14.2625V42.125H7.3875ZM34.8875 42.125V7.75H41.7625V42.125H34.8875ZM14.2625 7.75V0.875H34.8875V7.75H14.2625ZM85.4875 42.125V21.5H92.3625V42.125H85.4875ZM57.9875 49V0.875H92.3625V7.75H64.8625V14.625H85.4875V21.5H64.8625V42.125H85.4875V49H57.9875ZM152.312 21.5V14.625H159.188V21.5H152.312ZM138.562 49V0.875H145.438V21.5H152.312V28.375H145.438V49H138.562ZM166.062 49V14.625H159.188V7.75H166.062V0.875H172.938V49H166.062ZM189.162 49V0.875H223.537V7.75H196.037V49H189.162ZM267.262 14.625V7.75H274.137V14.625H267.262ZM239.762 49V0.875H267.262V7.75H246.637V14.625H267.262V21.5H246.637V49H239.762ZM290.362 49V0.875H324.737V7.75H297.237V14.625H317.862V21.5H297.237V42.125H324.737V49H290.362Z" fill="#72BBDC"/>
<path d="M21.2625 49V42.125H41.8875V49H21.2625ZM14.3875 42.125V7.75H21.2625V42.125H14.3875ZM41.8875 42.125V7.75H48.7625V42.125H41.8875ZM21.2625 7.75V0.875H41.8875V7.75H21.2625ZM92.4875 42.125V21.5H99.3625V42.125H92.4875ZM64.9875 49V0.875H99.3625V7.75H71.8625V14.625H92.4875V21.5H71.8625V42.125H92.4875V49H64.9875ZM159.312 21.5V14.625H166.188V21.5H159.312ZM145.562 49V0.875H152.438V21.5H159.312V28.375H152.438V49H145.562ZM173.062 49V14.625H166.188V7.75H173.062V0.875H179.938V49H173.062ZM196.162 49V0.875H230.537V7.75H203.037V49H196.162ZM274.262 14.625V7.75H281.137V14.625H274.262ZM246.762 49V0.875H274.262V7.75H253.637V14.625H274.262V21.5H253.637V49H246.762ZM297.362 49V0.875H331.737V7.75H304.237V14.625H324.862V21.5H304.237V42.125H331.737V49H297.362Z" fill="#F662B8"/>
</svg>
