<svg width="608" height="49" viewBox="0 0 608 49" fill="none" xmlns="http://www.w3.org/2000/svg">
<path d="M29.575 14.625V7.75H36.45V14.625H29.575ZM2.07501 49V0.875H29.575V7.75H8.95001V14.625H29.575V21.5H8.95001V49H2.07501ZM52.675 49V7.75H59.55V14.625H80.175V7.75H87.05V49H80.175V21.5H59.55V49H52.675ZM59.55 7.75V0.875H80.175V7.75H59.55ZM110.15 49V42.125H130.775V49H110.15ZM103.275 42.125V35.25H110.15V42.125H103.275ZM130.775 42.125V21.5H137.65V42.125H130.775ZM117.025 21.5V14.625H130.775V21.5H117.025ZM103.275 14.625V7.75H110.15V14.625H103.275ZM130.775 14.625V7.75H137.65V14.625H130.775ZM110.15 7.75V0.875H130.775V7.75H110.15ZM181.375 14.625V7.75H188.25V14.625H181.375ZM153.875 49V0.875H181.375V7.75H160.75V14.625H181.375V21.5H160.75V49H153.875ZM204.475 49V7.75H211.35V14.625H231.975V7.75H238.85V49H231.975V21.5H211.35V49H204.475ZM211.35 7.75V0.875H231.975V7.75H211.35ZM282.575 42.125V21.5H289.45V42.125H282.575ZM255.075 49V0.875H289.45V7.75H261.95V14.625H282.575V21.5H261.95V42.125H282.575V49H255.075ZM312.55 49V42.125H333.175V49H312.55ZM305.675 42.125V7.75H312.55V42.125H305.675ZM333.175 42.125V7.75H340.05V42.125H333.175ZM312.55 7.75V0.875H333.175V7.75H312.55ZM370.025 49V7.75H356.275V0.875H390.65V7.75H376.9V49H370.025ZM406.875 14.625V0.875H413.75V14.625H406.875ZM434.375 49V21.5H413.75V14.625H434.375V0.875H441.25V49H434.375ZM471.225 21.5V14.625H478.1V21.5H471.225ZM457.475 49V0.875H464.35V21.5H471.225V28.375H464.35V49H457.475ZM484.975 49V14.625H478.1V7.75H484.975V0.875H491.85V49H484.975ZM535.575 49V28.375H542.45V49H535.575ZM528.7 28.375V21.5H535.575V28.375H528.7ZM528.7 14.625V7.75H535.575V14.625H528.7ZM508.075 49V0.875H514.95V14.625H528.7V21.5H514.95V49H508.075ZM535.575 7.75V0.875H542.45V7.75H535.575ZM572.425 21.5V14.625H579.3V21.5H572.425ZM558.675 49V0.875H565.55V21.5H572.425V28.375H565.55V49H558.675ZM586.175 49V14.625H579.3V7.75H586.175V0.875H593.05V49H586.175Z" fill="#72BBDC"/>
<path d="M35.575 14.625V7.75H42.45V14.625H35.575ZM8.07501 49V0.875H35.575V7.75H14.95V14.625H35.575V21.5H14.95V49H8.07501ZM58.675 49V7.75H65.55V14.625H86.175V7.75H93.05V49H86.175V21.5H65.55V49H58.675ZM65.55 7.75V0.875H86.175V7.75H65.55ZM116.15 49V42.125H136.775V49H116.15ZM109.275 42.125V35.25H116.15V42.125H109.275ZM136.775 42.125V21.5H143.65V42.125H136.775ZM123.025 21.5V14.625H136.775V21.5H123.025ZM109.275 14.625V7.75H116.15V14.625H109.275ZM136.775 14.625V7.75H143.65V14.625H136.775ZM116.15 7.75V0.875H136.775V7.75H116.15ZM187.375 14.625V7.75H194.25V14.625H187.375ZM159.875 49V0.875H187.375V7.75H166.75V14.625H187.375V21.5H166.75V49H159.875ZM210.475 49V7.75H217.35V14.625H237.975V7.75H244.85V49H237.975V21.5H217.35V49H210.475ZM217.35 7.75V0.875H237.975V7.75H217.35ZM288.575 42.125V21.5H295.45V42.125H288.575ZM261.075 49V0.875H295.45V7.75H267.95V14.625H288.575V21.5H267.95V42.125H288.575V49H261.075ZM318.55 49V42.125H339.175V49H318.55ZM311.675 42.125V7.75H318.55V42.125H311.675ZM339.175 42.125V7.75H346.05V42.125H339.175ZM318.55 7.75V0.875H339.175V7.75H318.55ZM376.025 49V7.75H362.275V0.875H396.65V7.75H382.9V49H376.025ZM412.875 14.625V0.875H419.75V14.625H412.875ZM440.375 49V21.5H419.75V14.625H440.375V0.875H447.25V49H440.375ZM477.225 21.5V14.625H484.1V21.5H477.225ZM463.475 49V0.875H470.35V21.5H477.225V28.375H470.35V49H463.475ZM490.975 49V14.625H484.1V7.75H490.975V0.875H497.85V49H490.975ZM541.575 49V28.375H548.45V49H541.575ZM534.7 28.375V21.5H541.575V28.375H534.7ZM534.7 14.625V7.75H541.575V14.625H534.7ZM514.075 49V0.875H520.95V14.625H534.7V21.5H520.95V49H514.075ZM541.575 7.75V0.875H548.45V7.75H541.575ZM578.425 21.5V14.625H585.3V21.5H578.425ZM564.675 49V0.875H571.55V21.5H578.425V28.375H571.55V49H564.675ZM592.175 49V14.625H585.3V7.75H592.175V0.875H599.05V49H592.175Z" fill="#FFF100"/>
</svg>
