<svg width="182" height="182" viewBox="0 0 182 182" fill="none" xmlns="http://www.w3.org/2000/svg">
<g clip-path="url(#clip0)">
<path d="M178.971 67.8696V67.4901C168.733 28.819 133.09 0 91.0036 0C40.948 0 0 40.948 0 91.0036C0 141.059 40.948 182.007 91.0036 182.007C141.052 182.007 182.007 141.059 182.007 91.0036C182 83.0417 180.862 75.4521 178.971 67.8696ZM91.0036 7.58244C128.923 7.58244 160.771 32.6066 171.009 67.1107C167.974 69.3875 166.083 72.7957 164.186 75.8315C160.771 82.2755 157.742 88.7267 155.086 95.1707L154.706 95.9297C153.188 99.345 152.05 102.374 149.78 104.651C147.883 106.168 144.854 107.307 143.336 106.168C141.818 105.03 140.68 102.374 139.921 99.7245L135.374 82.6622C134.995 80.7648 133.856 77.3566 130.827 75.8387C129.689 75.4592 128.93 75.0797 127.792 75.0797C121.727 61.0533 107.314 50.8145 91.0107 50.8145C72.4305 50.8145 56.8862 63.3302 52.3324 80.3925C50.0555 82.2899 47.7858 84.9391 46.2679 87.2159C42.8526 92.142 38.6855 97.8342 36.7881 104.278C36.7881 104.658 36.4086 105.417 36.4086 106.176C35.6496 109.211 33.7522 116.035 30.3441 117.173C28.0672 117.932 25.0385 116.414 22.7616 114.896C21.6232 114.138 20.4848 112.24 19.3463 109.591C18.2079 106.555 17.8284 103.526 17.0694 100.491C16.69 98.5932 16.3105 97.0753 15.931 95.185C14.4131 88.3615 11.7567 83.8078 7.96908 80.3996C13.2675 39.4301 48.5305 7.58244 91.0036 7.58244ZM59.1487 84.5524C59.5282 84.1729 59.5282 83.414 59.5282 83.0345C63.323 69.0081 75.8315 58.7693 90.9964 58.7693C108.818 58.7693 123.603 73.1752 123.603 91.3759C123.603 109.197 109.197 123.983 90.9964 123.983C73.1752 123.983 58.3898 109.577 58.3898 91.3759C58.3898 88.7267 58.7693 86.4498 59.1487 84.5524ZM91.0036 174.418C45.8813 174.418 9.10036 138.396 7.5896 93.6528C7.96908 94.7912 8.34856 95.9297 8.72804 97.0681C9.10752 98.586 9.487 100.483 9.86648 101.994C10.6254 105.409 11.0049 108.818 12.5228 112.612C13.6613 115.269 15.1792 119.056 18.5874 121.333C22.3822 123.99 25.7903 125.128 28.8262 125.128C30.3441 125.128 31.4825 124.749 32.621 124.369C39.8239 121.713 42.1008 112.612 43.2392 108.066C43.2392 107.686 43.6187 106.927 43.6187 106.548C45.1366 102.001 47.793 97.4476 50.8217 93.2805C52.3396 114.138 69.7813 130.441 90.6313 130.441C111.109 130.441 128.171 114.896 130.441 94.7984L132.338 101.242C133.097 104.658 134.615 109.584 138.782 112.24C140.68 113.379 142.577 113.758 144.467 113.758C148.262 113.758 152.05 111.861 154.706 109.584C158.121 106.168 159.632 102.001 161.53 98.2065L161.909 97.4476C164.565 91.0036 167.594 84.9319 170.63 78.8674C171.389 77.7289 172.148 76.5905 172.907 75.4521C173.666 80.3781 174.425 85.3114 174.425 90.2375C174.418 136.878 136.878 174.418 91.0036 174.418Z" fill="#F662B8"/>
<path d="M22.7472 70.9054C23.1267 70.9054 23.5062 70.9054 23.8856 70.9054L32.986 68.6285C34.8834 68.2491 36.4013 65.9722 35.6424 64.0819C35.2629 62.1845 32.986 60.6666 31.0886 61.4256L21.9882 63.7025C20.098 64.0819 18.5801 66.3516 19.339 68.249C19.7185 69.767 21.2364 70.9054 22.7472 70.9054Z" fill="#F662B8"/>
<path d="M43.225 54.9815C43.6045 56.8789 45.1224 57.6379 47.0198 57.6379C47.3993 57.6379 47.7787 57.6379 48.1582 57.6379L57.2586 55.361C59.156 54.9815 60.6739 52.7047 59.9149 50.8144C59.5283 48.9099 57.2514 47.3991 55.3612 48.1509L46.2608 50.4278C43.9839 51.1867 42.8455 53.0841 43.225 54.9815Z" fill="#F662B8"/>
<path d="M39.8095 77.729L30.7163 80.0059C28.8189 80.3854 27.301 82.6623 28.0599 84.5525C28.4394 86.4499 29.9573 87.2089 31.8547 87.2089C32.2342 87.2089 32.6137 87.2089 32.9932 87.2089L42.0935 84.932C43.9909 84.5525 45.5089 82.2756 44.7499 80.3854C43.9838 78.488 41.7069 77.3495 39.8095 77.729Z" fill="#F662B8"/>
<path d="M65.972 31.4682C66.3515 31.4682 66.731 31.4682 67.1104 31.4682L76.2108 29.1913C78.1082 28.8118 79.6261 26.5349 78.8672 24.6447C78.4877 22.7473 76.2108 21.2294 74.3206 21.9883L65.2202 24.2652C63.3228 24.6447 61.8049 26.9216 62.5638 28.819C62.5638 30.3369 64.0818 31.4682 65.972 31.4682Z" fill="#F662B8"/>
<path d="M137.257 54.6021C137.637 54.6021 138.016 54.6021 138.396 54.6021L147.496 52.3252C149.394 51.9457 150.911 49.6688 150.152 47.7786C149.773 45.8812 147.496 44.3633 145.606 45.1222L136.498 47.3991C134.608 47.7786 133.09 50.0483 133.849 51.9457C133.849 53.4636 135.367 54.6021 137.257 54.6021Z" fill="#F662B8"/>
<path d="M34.8832 47.3992C35.2627 47.3992 35.6421 47.3992 36.0216 47.3992L45.122 45.1223C47.0194 44.7428 48.5373 42.466 47.7783 40.5757C47.3989 38.6783 45.122 37.1604 43.2246 37.9194L34.1242 40.1891C32.2268 40.5686 30.7161 42.8454 31.4679 44.7428C31.4679 46.2608 32.9858 47.3992 34.8832 47.3992Z" fill="#F662B8"/>
<path d="M83.4139 46.2608C83.7934 46.2608 84.1729 46.2608 84.5523 46.2608L93.6527 43.9839C95.5501 43.6044 97.068 41.3275 96.3091 39.4373C95.9296 37.5399 93.6527 36.022 91.7625 36.781L82.6621 39.0578C80.7647 39.4373 79.2468 41.7142 80.0057 43.6044C80.3852 45.1223 81.9031 46.2608 83.4139 46.2608Z" fill="#F662B8"/>
<path d="M111.095 42.466C111.474 44.3634 112.992 45.1224 114.889 45.1224C115.269 45.1224 115.648 45.1224 116.028 45.1224L125.128 42.8455C127.026 42.466 128.544 40.1891 127.785 38.2989C127.405 36.4015 125.128 34.8836 123.238 35.6425L114.13 37.9194C111.854 38.2989 110.715 40.1891 111.095 42.466Z" fill="#F662B8"/>
<path d="M103.133 27.6806C103.512 27.6806 103.892 27.6806 104.271 27.6806L113.372 25.4037C115.269 25.0242 116.787 22.7474 116.028 20.8571C115.649 18.9597 113.372 17.4418 111.482 18.2008L102.374 20.4776C100.477 20.8571 98.9587 23.134 99.7177 25.0242C100.104 26.5421 101.615 27.6806 103.133 27.6806Z" fill="#F662B8"/>
<path d="M140.673 69.008C138.775 69.3875 137.257 71.6644 138.016 73.5546C138.396 75.0725 139.914 76.211 141.811 76.211C142.191 76.211 142.57 76.211 142.95 76.211L152.05 73.9341C153.947 73.5546 155.465 71.2777 154.706 69.3875C154.327 67.4901 152.05 65.9722 150.16 66.7311L140.673 69.008Z" fill="#F662B8"/>
</g>
<defs>
<clipPath id="clip0">
<rect width="182" height="182" fill="white"/>
</clipPath>
</defs>
</svg>
