<svg width="189" height="189" viewBox="0 0 189 189" fill="none" xmlns="http://www.w3.org/2000/svg">
<path d="M100.729 49.9286L123.733 55.2395L122.405 60.9827L99.4016 55.6718L100.729 49.9286ZM80.1032 0H74.2056V23.6211H80.1032V0ZM116.014 19.7615L112.308 15.1608L93.9672 30.0127L97.6724 34.6135L116.014 19.7615ZM55.2469 55.4865L53.9192 49.7433L30.9156 55.0542L32.2433 60.7974L55.2469 55.4865ZM162.762 103.346V138.794C162.762 166.552 140.314 189 112.555 189C93.6584 189 74.7614 180.139 61.1754 155.93C42.3093 121.07 17.4839 98.0355 29.31 86.2094C37.5851 77.9343 50.5845 86.2094 62.3796 96.8309V44.2781C62.3796 36.0029 68.8639 29.5187 77.139 29.5187C85.4141 29.5187 91.8984 36.0029 91.8984 44.2781V73.7968C94.245 72.0368 97.209 70.8326 100.76 70.8326C106.658 70.8326 111.969 74.3834 114.346 80.281C117.31 77.9035 120.83 76.7301 124.381 76.7301C132.656 76.7301 139.141 83.2143 139.141 91.4895C141.487 89.7295 144.451 88.5253 148.002 88.5253C156.278 88.587 162.762 95.0712 162.762 103.346ZM156.864 103.346C156.864 98.6221 152.727 94.4846 148.003 94.4846C143.278 94.4846 139.141 98.6221 139.141 103.346V106.311H133.243V91.5512C133.243 86.827 129.106 82.6894 124.381 82.6894C119.657 82.6894 115.52 86.827 115.52 91.5512V100.413H109.622V85.6537C109.622 80.9294 105.485 76.7919 100.76 76.7919C96.0359 76.7919 91.8987 80.9294 91.8987 85.6537V106.311H86.0008V44.2781C86.0008 39.5538 81.8632 35.4163 77.139 35.4163C72.4148 35.4163 68.2772 39.5538 68.2772 44.2781V111.004C55.8645 98.0046 39.9318 83.8319 33.4475 90.347C27.55 96.8312 44.0693 114.555 66.5172 153.522C77.139 170.659 90.1384 183.041 112.587 183.041C136.794 183.041 156.864 161.767 156.864 138.763V116.315V103.346ZM61.0519 30.1054L42.7107 15.2534L39.0055 19.8541L57.3466 34.7061L61.0519 30.1054Z" fill="#F662B8"/>
</svg>
