<svg width="182" height="182" viewBox="0 0 182 182" fill="none" xmlns="http://www.w3.org/2000/svg">
<path d="M164.528 70.3306H91.3863C84.6001 58.7325 72.0515 50.8979 57.6722 50.8979V50.8909L24.7584 50.8876C16.5781 50.8876 9.92132 44.2341 9.92132 36.0576C9.92132 27.8811 16.5781 21.2308 24.7584 21.2308H117.123V25.1831C117.123 29.0408 120.25 32.1683 124.112 32.1683H155.561V27.3672H166.918V8.14715H155.561V3.34227H124.112C120.25 3.34227 117.123 6.47303 117.123 10.3313V14.2417H24.7579C12.7231 14.2417 2.93176 24.0299 2.93176 36.0576C2.93176 48.0891 12.7231 57.8766 24.7579 57.8766L57.6717 57.8799V57.887C67.9627 57.887 77.1076 62.7756 82.9782 70.3306H17.472C7.83777 70.3306 0 78.1684 0 87.8026V161.186C0 170.82 7.83777 178.658 17.472 178.658H164.527C174.165 178.658 181.999 170.82 181.999 161.186V87.8026C182 78.1684 174.165 70.3306 164.528 70.3306ZM175.011 161.185C175.011 166.965 170.307 171.668 164.527 171.668H17.472C11.6922 171.668 6.98848 166.964 6.98848 161.185V87.8026C6.98848 82.0229 11.6922 77.3191 17.472 77.3191H164.527C170.307 77.3191 175.011 82.0229 175.011 87.8026V161.185ZM39.5744 94.0538V102.524C39.5744 105.554 37.1108 108.011 34.0811 108.011H25.6143C22.5814 108.011 20.1243 105.554 20.1243 102.524V94.0538C20.1243 91.0242 22.5808 88.5676 25.6143 88.5676H34.0811C37.1108 88.5676 39.5744 91.0242 39.5744 94.0538ZM50.6973 102.524V94.0538C50.6973 91.0242 53.1539 88.5676 56.1873 88.5676H64.6542C67.6838 88.5676 70.1474 91.0242 70.1474 94.0538V102.524C70.1474 105.554 67.6838 108.011 64.6542 108.011H56.1873C53.1539 108.011 50.6973 105.554 50.6973 102.524ZM81.2731 102.524V94.0538C81.2731 91.0242 83.7296 88.5676 86.763 88.5676H95.2299C98.2595 88.5676 100.723 91.0242 100.723 94.0538V102.524C100.723 105.554 98.2595 108.011 95.2299 108.011H86.763C83.7296 108.011 81.2731 105.554 81.2731 102.524ZM131.303 94.0538V102.524C131.303 105.554 128.839 108.011 125.809 108.011H117.339C114.309 108.011 111.853 105.554 111.853 102.524V94.0538C111.853 91.0242 114.309 88.5676 117.339 88.5676H125.809C128.839 88.5676 131.303 91.0242 131.303 94.0538ZM161.879 94.0538V102.524C161.879 105.554 159.415 108.011 156.386 108.011H147.915C144.885 108.011 142.429 105.554 142.429 102.524V94.0538C142.429 91.0242 144.885 88.5676 147.915 88.5676H156.386C159.415 88.5676 161.879 91.0242 161.879 94.0538ZM39.5744 120.259V128.729C39.5744 131.759 37.1108 134.215 34.0811 134.215H25.6143C22.5814 134.215 20.1243 131.759 20.1243 128.729V120.259C20.1243 117.229 22.5808 114.772 25.6143 114.772H34.0811C37.1108 114.772 39.5744 117.229 39.5744 120.259ZM50.6973 128.729V120.259C50.6973 117.229 53.1539 114.772 56.1873 114.772H64.6542C67.6838 114.772 70.1474 117.229 70.1474 120.259V128.729C70.1474 131.759 67.6838 134.215 64.6542 134.215H56.1873C53.1539 134.215 50.6973 131.759 50.6973 128.729ZM81.2731 128.729V120.259C81.2731 117.229 83.7296 114.772 86.763 114.772H95.2299C98.2595 114.772 100.723 117.229 100.723 120.259V128.729C100.723 131.759 98.2595 134.215 95.2299 134.215H86.763C83.7296 134.215 81.2731 131.759 81.2731 128.729ZM131.303 120.259V128.729C131.303 131.759 128.839 134.215 125.809 134.215H117.339C114.309 134.215 111.853 131.759 111.853 128.729V120.259C111.853 117.229 114.309 114.772 117.339 114.772H125.809C128.839 114.772 131.303 117.229 131.303 120.259ZM161.879 120.259V128.729C161.879 131.759 159.415 134.215 156.386 134.215H147.915C144.885 134.215 142.429 131.759 142.429 128.729V120.259C142.429 117.229 144.885 114.772 147.915 114.772H156.386C159.415 114.772 161.879 117.229 161.879 120.259ZM39.5744 146.467V154.938C39.5744 157.967 37.1108 160.424 34.0811 160.424H25.6143C22.5814 160.424 20.1243 157.967 20.1243 154.938V146.467C20.1243 143.437 22.5808 140.981 25.6143 140.981H34.0811C37.1108 140.98 39.5744 143.437 39.5744 146.467ZM161.879 146.467V154.938C161.879 157.967 159.415 160.424 156.386 160.424H147.915C144.885 160.424 142.429 157.967 142.429 154.938V146.467C142.429 143.437 144.885 140.981 147.915 140.981H156.386C159.415 140.98 161.879 143.437 161.879 146.467ZM131.303 146.467V154.938C131.303 157.967 128.839 160.424 125.809 160.424H122.538H117.339H64.6536H60.219H56.1862C53.1533 160.424 50.6962 157.967 50.6962 154.938V146.467C50.6962 143.437 53.1528 140.981 56.1862 140.981H60.219H64.6536H117.339H122.538H125.809C128.839 140.98 131.303 143.437 131.303 146.467Z" fill="#F662B8"/>
</svg>
