<svg width="471" height="49" viewBox="0 0 471 49" fill="none" xmlns="http://www.w3.org/2000/svg">
<path d="M15.85 49V42.125H36.475V49H15.85ZM36.475 42.125V35.25H43.35V42.125H36.475ZM8.97501 42.125V7.75H15.85V42.125H8.97501ZM36.475 14.625V7.75H43.35V14.625H36.475ZM15.85 7.75V0.875H36.475V7.75H15.85ZM87.075 49V28.375H93.95V49H87.075ZM80.2 28.375V21.5H87.075V28.375H80.2ZM80.2 14.625V7.75H87.075V14.625H80.2ZM59.575 49V0.875H66.45V14.625H80.2V21.5H66.45V49H59.575ZM87.075 7.75V0.875H93.95V7.75H87.075ZM137.675 14.625V7.75H144.55V14.625H137.675ZM110.175 49V0.875H137.675V7.75H117.05V14.625H137.675V21.5H117.05V49H110.175ZM174.525 21.5V14.625H181.4V21.5H174.525ZM160.775 49V0.875H167.65V21.5H174.525V28.375H167.65V49H160.775ZM188.275 49V14.625H181.4V7.75H188.275V0.875H195.15V49H188.275ZM211.375 49V0.875H218.25V14.625H238.875V0.875H245.75V49H238.875V21.5H218.25V49H211.375ZM261.975 49V0.875H268.85V42.125H275.725V0.875H282.6V42.125H289.475V0.875H296.35V49H261.975ZM319.45 49V42.125H340.075V49H319.45ZM312.575 42.125V7.75H319.45V42.125H312.575ZM340.075 42.125V7.75H346.95V42.125H340.075ZM319.45 7.75V0.875H340.075V7.75H319.45ZM376.925 49V7.75H363.175V0.875H397.55V7.75H383.8V49H376.925ZM427.525 42.125V21.5H434.4V42.125H427.525ZM413.775 49V0.875H420.65V14.625H427.525V21.5H420.65V42.125H427.525V49H413.775ZM441.275 49V0.875H448.15V49H441.275Z" fill="#72BBDC"/>
<path d="M22.85 49V42.125H43.475V49H22.85ZM43.475 42.125V35.25H50.35V42.125H43.475ZM15.975 42.125V7.75H22.85V42.125H15.975ZM43.475 14.625V7.75H50.35V14.625H43.475ZM22.85 7.75V0.875H43.475V7.75H22.85ZM94.075 49V28.375H100.95V49H94.075ZM87.2 28.375V21.5H94.075V28.375H87.2ZM87.2 14.625V7.75H94.075V14.625H87.2ZM66.575 49V0.875H73.45V14.625H87.2V21.5H73.45V49H66.575ZM94.075 7.75V0.875H100.95V7.75H94.075ZM144.675 14.625V7.75H151.55V14.625H144.675ZM117.175 49V0.875H144.675V7.75H124.05V14.625H144.675V21.5H124.05V49H117.175ZM181.525 21.5V14.625H188.4V21.5H181.525ZM167.775 49V0.875H174.65V21.5H181.525V28.375H174.65V49H167.775ZM195.275 49V14.625H188.4V7.75H195.275V0.875H202.15V49H195.275ZM218.375 49V0.875H225.25V14.625H245.875V0.875H252.75V49H245.875V21.5H225.25V49H218.375ZM268.975 49V0.875H275.85V42.125H282.725V0.875H289.6V42.125H296.475V0.875H303.35V49H268.975ZM326.45 49V42.125H347.075V49H326.45ZM319.575 42.125V7.75H326.45V42.125H319.575ZM347.075 42.125V7.75H353.95V42.125H347.075ZM326.45 7.75V0.875H347.075V7.75H326.45ZM383.925 49V7.75H370.175V0.875H404.55V7.75H390.8V49H383.925ZM434.525 42.125V21.5H441.4V42.125H434.525ZM420.775 49V0.875H427.65V14.625H434.525V21.5H427.65V42.125H434.525V49H420.775ZM448.275 49V0.875H455.15V49H448.275Z" fill="#F662B8"/>
</svg>
